<?xml version="1.0" encoding="UTF-8" standalone="no"?>
<!-- Generator: Adobe Illustrator 22.1.0, SVG Export Plug-In . SVG Version: 6.00 Build 0)  -->

<svg
   xmlns:dc="http://purl.org/dc/elements/1.1/"
   xmlns:cc="http://creativecommons.org/ns#"
   xmlns:rdf="http://www.w3.org/1999/02/22-rdf-syntax-ns#"
   xmlns:svg="http://www.w3.org/2000/svg"
   xmlns="http://www.w3.org/2000/svg"
   xmlns:sodipodi="http://sodipodi.sourceforge.net/DTD/sodipodi-0.dtd"
   xmlns:inkscape="http://www.inkscape.org/namespaces/inkscape"
   version="1.1"
   id="Capa_1"
   x="0px"
   y="0px"
   viewBox="0 0 622.40002 952.09998"
   xml:space="preserve"
   sodipodi:docname="logo.svg"
   width="622.40002"
   height="952.09998"
   inkscape:version="0.92.3 (2405546, 2018-03-11)"><metadata
   id="metadata300"><rdf:RDF><cc:Work
       rdf:about=""><dc:format>image/svg+xml</dc:format><dc:type
         rdf:resource="http://purl.org/dc/dcmitype/StillImage" /><dc:title></dc:title></cc:Work></rdf:RDF></metadata><defs
   id="defs298" /><sodipodi:namedview
   pagecolor="#ffffff"
   bordercolor="#666666"
   borderopacity="1"
   objecttolerance="10"
   gridtolerance="10"
   guidetolerance="10"
   inkscape:pageopacity="0"
   inkscape:pageshadow="2"
   inkscape:window-width="1920"
   inkscape:window-height="1001"
   id="namedview296"
   showgrid="false"
   fit-margin-top="0"
   fit-margin-left="0"
   fit-margin-right="0"
   fit-margin-bottom="0"
   inkscape:zoom="0.21851852"
   inkscape:cx="352.6"
   inkscape:cy="481.10002"
   inkscape:window-x="-9"
   inkscape:window-y="-9"
   inkscape:window-maximized="1"
   inkscape:current-layer="Capa_1" />
<style
   type="text/css"
   id="style2">
	.st0{fill:url(#SVGID_1_);}
	.st1{fill:url(#SVGID_2_);}
	.st2{fill:url(#SVGID_3_);}
	.st3{fill:url(#SVGID_4_);}
	.st4{fill:url(#SVGID_5_);}
	.st5{fill:url(#SVGID_6_);}
	.st6{fill:url(#SVGID_7_);}
	.st7{fill:url(#SVGID_8_);}
	.st8{fill:url(#SVGID_9_);}
	.st9{fill:url(#SVGID_10_);}
	.st10{fill:url(#SVGID_11_);}
	.st11{fill:url(#SVGID_12_);}
	.st12{fill:url(#SVGID_13_);}
	.st13{fill:url(#SVGID_14_);}
	.st14{fill:url(#SVGID_15_);}
	.st15{fill:url(#SVGID_16_);}
	.st16{fill:url(#SVGID_17_);}
	.st17{fill:#FFFFFF;}
	.st18{opacity:0.8;}
	.st19{opacity:0.8;fill:#FFFFFF;}
	.st20{opacity:0.6;fill:#FFFFFF;}
	.st21{opacity:0.4;fill:#FFFFFF;}
	.st22{opacity:0.3;fill:#FFFFFF;}
	.st23{fill:url(#SVGID_18_);}
	.st24{fill:url(#SVGID_19_);}
</style>
<g
   id="g43"
   transform="translate(-607.4,-69)">
	<linearGradient
   id="SVGID_1_"
   gradientUnits="userSpaceOnUse"
   x1="607.44409"
   y1="834.54382"
   x2="763.70361"
   y2="834.54382">
		<stop
   offset="0"
   style="stop-color:#4F4F4F"
   id="stop4" />
		<stop
   offset="0.1949"
   style="stop-color:#494949"
   id="stop6" />
		<stop
   offset="0.4609"
   style="stop-color:#373737"
   id="stop8" />
		<stop
   offset="0.7666"
   style="stop-color:#1B1B1B"
   id="stop10" />
		<stop
   offset="1"
   style="stop-color:#000000"
   id="stop12" />
	</linearGradient>
	<path
   class="st0"
   d="M 607.4,736 H 699 c 33.8,0 56.3,22.5 56.3,52.1 0,16.6 -6.8,26.7 -13.5,33.2 -3.9,3.7 -8.4,6.8 -13.2,9 v 1.4 c 6.5,2 12.4,5.1 17.5,9 8.7,6.8 17.7,18.3 17.7,37.4 0,31 -23.9,54.9 -64.7,54.9 H 607.6 V 736 Z m 91.6,87.3 c 23.9,0 38,-13.8 38,-35.2 0,-21.4 -14.1,-35.2 -38,-35.2 h -73.2 v 70.4 z m 0,92.9 c 31.3,0 46.5,-15.5 46.5,-38 0,-22.5 -15.2,-38 -46.5,-38 h -73.2 v 76 z"
   id="path15"
   inkscape:connector-curvature="0"
   style="fill:url(#SVGID_1_)" />
	<linearGradient
   id="SVGID_2_"
   gradientUnits="userSpaceOnUse"
   x1="801.72308"
   y1="834.54382"
   x2="969.24823"
   y2="834.54382">
		<stop
   offset="0"
   style="stop-color:#4F4F4F"
   id="stop17" />
		<stop
   offset="0.1949"
   style="stop-color:#494949"
   id="stop19" />
		<stop
   offset="0.4609"
   style="stop-color:#373737"
   id="stop21" />
		<stop
   offset="0.7666"
   style="stop-color:#1B1B1B"
   id="stop23" />
		<stop
   offset="1"
   style="stop-color:#000000"
   id="stop25" />
	</linearGradient>
	<path
   class="st1"
   d="m 801.7,736 h 64.8 c 59.7,0 102.8,43.1 102.8,98.5 0,55.5 -43.1,98.5 -102.8,98.5 h -64.8 z m 64.8,173.2 c 46.2,0 77.4,-31 77.4,-74.6 0,-43.6 -31.3,-74.6 -77.4,-74.6 h -39.4 v 149.2 z"
   id="path28"
   inkscape:connector-curvature="0"
   style="fill:url(#SVGID_2_)" />
	<linearGradient
   id="SVGID_3_"
   gradientUnits="userSpaceOnUse"
   x1="1000.225"
   y1="834.54382"
   x2="1229.7037"
   y2="834.54382">
		<stop
   offset="0"
   style="stop-color:#4F4F4F"
   id="stop30" />
		<stop
   offset="0.1949"
   style="stop-color:#494949"
   id="stop32" />
		<stop
   offset="0.4609"
   style="stop-color:#373737"
   id="stop34" />
		<stop
   offset="0.7666"
   style="stop-color:#1B1B1B"
   id="stop36" />
		<stop
   offset="1"
   style="stop-color:#000000"
   id="stop38" />
	</linearGradient>
	<path
   class="st2"
   d="m 1000.2,736 h 63.4 l 47.9,112.6 h 7 L 1166.4,736 h 63.4 v 197.1 h -42.2 V 807.8 l 2.8,-25.4 h -2.8 l -45,105.6 h -54.9 l -45,-105.6 h -2.8 l 2.8,25.4 v 125.3 h -42.2 V 736 Z"
   id="path41"
   inkscape:connector-curvature="0"
   style="fill:url(#SVGID_3_)" />
</g>
<g
   id="g188"
   transform="translate(-607.4,-69)">
	<linearGradient
   id="SVGID_4_"
   gradientUnits="userSpaceOnUse"
   x1="607.44409"
   y1="998.54352"
   x2="635.72412"
   y2="998.54352">
		<stop
   offset="0"
   style="stop-color:#4F4F4F"
   id="stop45" />
		<stop
   offset="0.1949"
   style="stop-color:#494949"
   id="stop47" />
		<stop
   offset="0.4609"
   style="stop-color:#373737"
   id="stop49" />
		<stop
   offset="0.7666"
   style="stop-color:#1B1B1B"
   id="stop51" />
		<stop
   offset="1"
   style="stop-color:#000000"
   id="stop53" />
	</linearGradient>
	<path
   class="st3"
   d="m 635.7,1012.7 v 7.4 h -28.3 v -18.2 -17.5 -7.4 h 27.7 v 7.4 h -19.7 v 10.2 H 632 v 7.2 h -16.6 v 10.8 h 20.3 z"
   id="path56"
   inkscape:connector-curvature="0"
   style="fill:url(#SVGID_4_)" />
	<linearGradient
   id="SVGID_5_"
   gradientUnits="userSpaceOnUse"
   x1="661.45258"
   y1="998.56299"
   x2="692.79053"
   y2="998.56299">
		<stop
   offset="0"
   style="stop-color:#4F4F4F"
   id="stop58" />
		<stop
   offset="0.1949"
   style="stop-color:#494949"
   id="stop60" />
		<stop
   offset="0.4609"
   style="stop-color:#373737"
   id="stop62" />
		<stop
   offset="0.7666"
   style="stop-color:#1B1B1B"
   id="stop64" />
		<stop
   offset="1"
   style="stop-color:#000000"
   id="stop66" />
	</linearGradient>
	<path
   class="st4"
   d="m 677.3,983.5 c -2.5,0 -4.1,1.8 -4.1,3.5 0,1.5 0.7,2.6 3,3.9 l 7.3,4.1 c 5.8,3.2 9.3,6.5 9.3,12.9 0,7.2 -7.1,13.2 -15.7,13.2 -9.9,0 -14.4,-7.2 -15.7,-9.9 l 7.1,-3.8 c 2.7,3.8 6,6.2 9.6,6.2 3.1,0 6.2,-2.2 6.2,-5.5 0,-2.5 -1.9,-4.2 -4.9,-5.9 l -7.3,-4.1 c -3.9,-2.2 -7.8,-4.7 -7.8,-10.7 0,-5.9 5.4,-11.2 13,-11.2 8.3,0 11.5,6.3 11.5,6.3 l -6.9,3.6 c -0.5,-0.8 -2.4,-2.6 -4.6,-2.6 z"
   id="path69"
   inkscape:connector-curvature="0"
   style="fill:url(#SVGID_5_)" />
	<linearGradient
   id="SVGID_6_"
   gradientUnits="userSpaceOnUse"
   x1="714.81848"
   y1="998.54352"
   x2="748.02612"
   y2="998.54352">
		<stop
   offset="0"
   style="stop-color:#4F4F4F"
   id="stop71" />
		<stop
   offset="0.1949"
   style="stop-color:#494949"
   id="stop73" />
		<stop
   offset="0.4609"
   style="stop-color:#373737"
   id="stop75" />
		<stop
   offset="0.7666"
   style="stop-color:#1B1B1B"
   id="stop77" />
		<stop
   offset="1"
   style="stop-color:#000000"
   id="stop79" />
	</linearGradient>
	<path
   class="st5"
   d="m 748,984.4 h -12.5 v 35.6 h -8.1 V 984.4 H 714.9 V 977 h 20.7 12.4 z"
   id="path82"
   inkscape:connector-curvature="0"
   style="fill:url(#SVGID_6_)" />
	<linearGradient
   id="SVGID_7_"
   gradientUnits="userSpaceOnUse"
   x1="775.25427"
   y1="998.54352"
   x2="805.92987"
   y2="998.54352">
		<stop
   offset="0"
   style="stop-color:#4F4F4F"
   id="stop84" />
		<stop
   offset="0.1949"
   style="stop-color:#494949"
   id="stop86" />
		<stop
   offset="0.4609"
   style="stop-color:#373737"
   id="stop88" />
		<stop
   offset="0.7666"
   style="stop-color:#1B1B1B"
   id="stop90" />
		<stop
   offset="1"
   style="stop-color:#000000"
   id="stop92" />
	</linearGradient>
	<path
   class="st6"
   d="m 790,1005.3 h -6.8 v 14.8 h -7.9 v -43 h 7.9 6.9 c 8.6,0 15.4,6.9 15.4,15.4 0,4.4 -2.9,9.5 -7.6,11.8 l 8.2,15.9 h -8.6 z m -6.9,-7.4 h 11.5 c 1.7,-1.3 2.8,-2.8 2.8,-6 0,-4.6 -3.6,-7.6 -7.4,-7.6 h -6.9 z"
   id="path95"
   inkscape:connector-curvature="0"
   style="fill:url(#SVGID_7_)" />
	<linearGradient
   id="SVGID_8_"
   gradientUnits="userSpaceOnUse"
   x1="834.42419"
   y1="999.01093"
   x2="867.00848"
   y2="999.01093">
		<stop
   offset="0"
   style="stop-color:#4F4F4F"
   id="stop97" />
		<stop
   offset="0.1949"
   style="stop-color:#494949"
   id="stop99" />
		<stop
   offset="0.4609"
   style="stop-color:#373737"
   id="stop101" />
		<stop
   offset="0.7666"
   style="stop-color:#1B1B1B"
   id="stop103" />
		<stop
   offset="1"
   style="stop-color:#000000"
   id="stop105" />
	</linearGradient>
	<path
   class="st7"
   d="m 867,1002.5 c 0,12.1 -6.7,18.5 -16.3,18.5 -9.6,0 -16.3,-6.4 -16.3,-18.5 V 977 h 8.1 v 25.5 c 0,7.9 3.6,10.8 8.2,10.8 4.6,0 8.2,-2.9 8.2,-10.8 V 977 h 8.1 z"
   id="path108"
   inkscape:connector-curvature="0"
   style="fill:url(#SVGID_8_)" />
	<linearGradient
   id="SVGID_9_"
   gradientUnits="userSpaceOnUse"
   x1="895.46381"
   y1="998.56299"
   x2="933.09253"
   y2="998.56299">
		<stop
   offset="0"
   style="stop-color:#4F4F4F"
   id="stop110" />
		<stop
   offset="0.1949"
   style="stop-color:#494949"
   id="stop112" />
		<stop
   offset="0.4609"
   style="stop-color:#373737"
   id="stop114" />
		<stop
   offset="0.7666"
   style="stop-color:#1B1B1B"
   id="stop116" />
		<stop
   offset="1"
   style="stop-color:#000000"
   id="stop118" />
	</linearGradient>
	<path
   class="st8"
   d="m 915.4,1021 c -11,0 -20,-10 -20,-22.4 0,-12.5 9,-22.4 20,-22.4 12.6,0 17.5,11.8 17.5,11.8 l -7.1,3.8 c 0,0 -3.4,-8 -10.4,-8 -6.3,0 -11.7,7 -11.7,14.8 0,7.7 5.4,14.7 11.7,14.7 7.2,0 10.6,-8 10.6,-8 l 7.1,3.8 c 0,0 -5,11.9 -17.7,11.9 z"
   id="path121"
   inkscape:connector-curvature="0"
   style="fill:url(#SVGID_9_)" />
	<linearGradient
   id="SVGID_10_"
   gradientUnits="userSpaceOnUse"
   x1="956.32812"
   y1="998.54352"
   x2="989.53558"
   y2="998.54352">
		<stop
   offset="0"
   style="stop-color:#4F4F4F"
   id="stop123" />
		<stop
   offset="0.1949"
   style="stop-color:#494949"
   id="stop125" />
		<stop
   offset="0.4609"
   style="stop-color:#373737"
   id="stop127" />
		<stop
   offset="0.7666"
   style="stop-color:#1B1B1B"
   id="stop129" />
		<stop
   offset="1"
   style="stop-color:#000000"
   id="stop131" />
	</linearGradient>
	<path
   class="st9"
   d="M 989.5,984.4 H 977 v 35.6 h -8.1 V 984.4 H 956.4 V 977 h 20.6 12.5 z"
   id="path134"
   inkscape:connector-curvature="0"
   style="fill:url(#SVGID_10_)" />
	<linearGradient
   id="SVGID_11_"
   gradientUnits="userSpaceOnUse"
   x1="1016.4718"
   y1="999.01093"
   x2="1049.0562"
   y2="999.01093">
		<stop
   offset="0"
   style="stop-color:#4F4F4F"
   id="stop136" />
		<stop
   offset="0.1949"
   style="stop-color:#494949"
   id="stop138" />
		<stop
   offset="0.4609"
   style="stop-color:#373737"
   id="stop140" />
		<stop
   offset="0.7666"
   style="stop-color:#1B1B1B"
   id="stop142" />
		<stop
   offset="1"
   style="stop-color:#000000"
   id="stop144" />
	</linearGradient>
	<path
   class="st10"
   d="m 1049.1,1002.5 c 0,12.1 -6.7,18.5 -16.3,18.5 -9.6,0 -16.3,-6.4 -16.3,-18.5 V 977 h 8.1 v 25.5 c 0,7.9 3.6,10.8 8.2,10.8 4.6,0 8.2,-2.9 8.2,-10.8 V 977 h 8.1 z"
   id="path147"
   inkscape:connector-curvature="0"
   style="fill:url(#SVGID_11_)" />
	<linearGradient
   id="SVGID_12_"
   gradientUnits="userSpaceOnUse"
   x1="1079.9849"
   y1="998.54352"
   x2="1110.6411"
   y2="998.54352">
		<stop
   offset="0"
   style="stop-color:#4F4F4F"
   id="stop149" />
		<stop
   offset="0.1949"
   style="stop-color:#494949"
   id="stop151" />
		<stop
   offset="0.4609"
   style="stop-color:#373737"
   id="stop153" />
		<stop
   offset="0.7666"
   style="stop-color:#1B1B1B"
   id="stop155" />
		<stop
   offset="1"
   style="stop-color:#000000"
   id="stop157" />
	</linearGradient>
	<path
   class="st11"
   d="m 1094.7,1005.3 h -6.8 v 14.8 h -7.9 v -43 h 7.9 6.9 c 8.6,0 15.4,6.9 15.4,15.4 0,4.4 -2.9,9.5 -7.6,11.8 l 8.2,15.9 h -8.6 z m -6.8,-7.4 h 11.5 c 1.7,-1.3 2.8,-2.8 2.8,-6 0,-4.6 -3.6,-7.6 -7.4,-7.6 h -6.9 z"
   id="path160"
   inkscape:connector-curvature="0"
   style="fill:url(#SVGID_12_)" />
	<linearGradient
   id="SVGID_13_"
   gradientUnits="userSpaceOnUse"
   x1="1135.1232"
   y1="998.54352"
   x2="1174.4658"
   y2="998.54352">
		<stop
   offset="0"
   style="stop-color:#4F4F4F"
   id="stop162" />
		<stop
   offset="0.1949"
   style="stop-color:#494949"
   id="stop164" />
		<stop
   offset="0.4609"
   style="stop-color:#373737"
   id="stop166" />
		<stop
   offset="0.7666"
   style="stop-color:#1B1B1B"
   id="stop168" />
		<stop
   offset="1"
   style="stop-color:#000000"
   id="stop170" />
	</linearGradient>
	<path
   class="st12"
   d="m 1162.5,1009.9 h -15.4 l -3.4,10.2 h -8.6 l 14.7,-43 h 8.2 1.7 l 14.8,43 h -8.6 z m -2.5,-7.3 -5.2,-15.8 -5.2,15.8 z"
   id="path173"
   inkscape:connector-curvature="0"
   style="fill:url(#SVGID_13_)" />
	<linearGradient
   id="SVGID_14_"
   gradientUnits="userSpaceOnUse"
   x1="1201.402"
   y1="998.54352"
   x2="1229.6625"
   y2="998.54352">
		<stop
   offset="0"
   style="stop-color:#4F4F4F"
   id="stop175" />
		<stop
   offset="0.1949"
   style="stop-color:#494949"
   id="stop177" />
		<stop
   offset="0.4609"
   style="stop-color:#373737"
   id="stop179" />
		<stop
   offset="0.7666"
   style="stop-color:#1B1B1B"
   id="stop181" />
		<stop
   offset="1"
   style="stop-color:#000000"
   id="stop183" />
	</linearGradient>
	<path
   class="st13"
   d="m 1229.7,1012.7 v 7.4 h -28.3 v -43 h 8 v 35.7 h 20.3 z"
   id="path186"
   inkscape:connector-curvature="0"
   style="fill:url(#SVGID_14_)" />
</g>

<linearGradient
   id="SVGID_16_"
   gradientUnits="userSpaceOnUse"
   x1="2101.9858"
   y1="715.58759"
   x2="2410.1233"
   y2="893.49078"
   gradientTransform="matrix(0,-1,-1,0,1734.2668,2344.4092)">
	<stop
   offset="0"
   style="stop-color:#000000"
   id="stop199" />
	<stop
   offset="0.2334"
   style="stop-color:#1B1B1B"
   id="stop201" />
	<stop
   offset="0.5391"
   style="stop-color:#373737"
   id="stop203" />
	<stop
   offset="0.8051"
   style="stop-color:#494949"
   id="stop205" />
	<stop
   offset="1"
   style="stop-color:#4F4F4F"
   id="stop207" />
</linearGradient>
<polygon
   class="st15"
   points="919.4,69 1229.7,69 1107.5,191.1 919.4,191.1 729.6,191.1 607.4,69 "
   id="polygon210"
   style="fill:url(#SVGID_16_)"
   transform="translate(-607.4,-69)" />
<linearGradient
   id="SVGID_17_"
   gradientUnits="userSpaceOnUse"
   x1="1168.6047"
   y1="69.000099"
   x2="1168.6047"
   y2="692.06769">
	<stop
   offset="0"
   style="stop-color:#4F4F4F"
   id="stop212" />
	<stop
   offset="0.1949"
   style="stop-color:#494949"
   id="stop214" />
	<stop
   offset="0.4609"
   style="stop-color:#373737"
   id="stop216" />
	<stop
   offset="0.7666"
   style="stop-color:#1B1B1B"
   id="stop218" />
	<stop
   offset="1"
   style="stop-color:#000000"
   id="stop220" />
</linearGradient>
<polygon
   class="st16"
   points="1228.8,691.2 1229.7,692.1 1229.7,380.1 1229.7,69 1107.5,191.1 1107.5,380.1 1107.5,570 "
   id="polygon223"
   style="fill:url(#SVGID_17_)"
   transform="translate(-607.4,-69)" />







<linearGradient
   id="SVGID_18_"
   gradientUnits="userSpaceOnUse"
   x1="1803.5295"
   y1="1126.8228"
   x2="1803.5295"
   y2="504.60431"
   gradientTransform="rotate(90,1453.393,280.87375)">
	<stop
   offset="0"
   style="stop-color:#000000"
   id="stop269" />
	<stop
   offset="0.2334"
   style="stop-color:#1B1B1B"
   id="stop271" />
	<stop
   offset="0.5391"
   style="stop-color:#373737"
   id="stop273" />
	<stop
   offset="0.8051"
   style="stop-color:#494949"
   id="stop275" />
	<stop
   offset="1"
   style="stop-color:#4F4F4F"
   id="stop277" />
</linearGradient>
<polygon
   class="st23"
   points="919.4,692.1 1229.7,692.1 1107.5,570 919.4,570 729.6,570 607.4,692.1 "
   id="polygon280"
   style="fill:url(#SVGID_18_)"
   transform="translate(-607.4,-69)" />
<linearGradient
   id="SVGID_19_"
   gradientUnits="userSpaceOnUse"
   x1="668.50171"
   y1="692.06769"
   x2="668.50171"
   y2="69">
	<stop
   offset="0"
   style="stop-color:#4F4F4F"
   id="stop282" />
	<stop
   offset="0.1949"
   style="stop-color:#494949"
   id="stop284" />
	<stop
   offset="0.4609"
   style="stop-color:#373737"
   id="stop286" />
	<stop
   offset="0.7666"
   style="stop-color:#1B1B1B"
   id="stop288" />
	<stop
   offset="1"
   style="stop-color:#000000"
   id="stop290" />
</linearGradient>
<polygon
   class="st24"
   points="607.4,380.1 607.4,692.1 608.3,691.2 729.6,570 729.6,380.1 729.6,191.1 607.4,69 "
   id="polygon293"
   style="fill:url(#SVGID_19_)"
   transform="translate(-607.4,-69)" />
</svg>